<svg id="Calque_1" data-name="Calque 1" xmlns="http://www.w3.org/2000/svg" viewBox="0 0 270 172.43539"><defs><style>.cls-1,.cls-2,.cls-3,.cls-5{fill:none;}.cls-1,.cls-4,.cls-5{stroke:#000;}.cls-1,.cls-2,.cls-3,.cls-4,.cls-5{stroke-miterlimit:10;}.cls-1{stroke-width:3px;}.cls-2,.cls-3{stroke:#047a18;}.cls-2,.cls-5{stroke-width:2px;}.cls-6,.cls-8{fill:#047a18;}.cls-7,.cls-8{isolation:isolate;}.cls-7{opacity:0.9;}.cls-8{opacity:0.8;}</style></defs><path class="cls-1" d="M199.68,98.75a67.14121,67.14121,0,0,1-8.49,21.9l11.15,12.47c-19.8-.43-42.8-.68-67.34-.68-25.01,0-48.42.26-68.47.7l11.85-13.99.62-1.44c-4.09-6.85-6.39-11.9-7.87-20.09L50.71,96.49V70.55l21.13-1.18a67.4899,67.4899,0,0,1,8.34-20.19L67.05,34.49,85.38,16.16,99.63,28.91a64.37774,64.37774,0,0,1,21.19-9.29L121.86,1h25.93l1.01,18.32a64.03661,64.03661,0,0,1,21.8,9.06l13.67-12.22,18.34,18.33L190.28,48.28a67.62187,67.62187,0,0,1,9.19,22.35l19.82,1.1V97.67Z" transform="translate(0 0.5)"/><rect class="cls-2" x="131.75809" y="87.55626" width="8.25214" height="1.17888"/><rect class="cls-2" x="131.75809" y="82.84075" width="8.25214" height="4.71551"/><polygon class="cls-2" points="134.116 85.198 140.01 85.198 140.01 85.198 134.116 85.198"/><polygon class="cls-2" points="131.758 85.198 132.937 85.198 132.937 85.198 131.758 85.198"/><path class="cls-2" d="M145.73955,70.552a9.95046,9.95046,0,0,1-3.85488,6.248,4.69,4.69,0,0,0-1.87443,3.74882v1.79191H136.4736V78.80411a2.35775,2.35775,0,1,0,0-4.7155h0V70.552h2.35776a2.35776,2.35776,0,0,1,4.71552,0Z" transform="translate(0 0.5)"/><path class="cls-2" d="M138.83134,76.44636a2.36472,2.36472,0,0,1-2.35774,2.35775v3.53663h-4.71551V80.56063a4.83628,4.83628,0,0,0-1.95691-3.81955,9.95075,9.95075,0,0,1-3.77242-6.18911h2.19269a2.35776,2.35776,0,0,0,4.71552.0067V70.552h3.53663V74.0886A2.36467,2.36467,0,0,1,138.83134,76.44636Z" transform="translate(0 0.5)"/><path class="cls-2" d="M134.11584,64.65759a2.36472,2.36472,0,0,0,2.35776,2.35775V70.552H132.937a2.35776,2.35776,0,0,1-4.71552.0067V70.552h-2.1927a9.76638,9.76638,0,0,1-.16506-1.76831,10.01955,10.01955,0,0,1,10.01867-10.02044h.00178c.18858,0,.389.0118.58945.02352v3.5131A2.36468,2.36468,0,0,0,134.11584,64.65759Z" transform="translate(0 0.5)"/><path class="cls-2" d="M136.4736,58.76321v.02352c-.20039-.01172-.40085-.02352-.58944-.02352Z" transform="translate(0 0.5)"/><path class="cls-2" d="M150.62012,63.91489V64.08a9.54205,9.54205,0,0,1-.16506,1.75653h-2.19269a2.35776,2.35776,0,1,0-4.71551-.0067v.0067H141.1891V62.29985a2.35776,2.35776,0,0,1,0-4.71551v-3.5131c.18859.0118.389.0236.58945.0472a10.05541,10.05541,0,0,1,8.73544,8.48793A12.473,12.473,0,0,1,150.62012,63.91489Z" transform="translate(0 0.5)"/><line class="cls-2" x1="123.21246" y1="61.80989" x2="119.96932" y2="58.08433"/><line class="cls-2" x1="126.516" y1="58.87127" x2="125.8637" y2="55.72658"/><line class="cls-3" x1="121.1482" y1="65.15759" x2="118.79044" y2="65.15759"/><line class="cls-2" x1="146.78754" y1="77.93631" x2="150.03069" y2="81.66187"/><line class="cls-2" x1="143.48399" y1="80.87494" x2="144.13631" y2="84.01962"/><line class="cls-2" x1="148.85181" y1="74.5886" x2="151.20956" y2="74.5886"/><polygon class="cls-2" points="135.295 86.377 136.474 86.377 136.474 86.377 135.295 86.377"/><rect class="cls-2" x="137.65247" y="82.84075" width="1.17888" height="2.35775"/><polygon class="cls-4" points="166.419 106.418 178.208 106.418 167.598 98.756 161.704 98.756 166.419 106.418"/><path class="cls-4" d="M169.27,114.17042a45.9791,45.9791,0,0,1-68.53991,0h5.09276a42.73426,42.73426,0,0,0,58.94384,0Z" transform="translate(0 0.5)"/><rect class="cls-5" x="101.40201" y="43.93781" width="68.37486" height="51.87058"/><polygon class="cls-5" points="178.618 107.008 91.382 107.008 100.813 98.756 170.366 98.756 178.618 107.008"/><polygon class="cls-5" points="177.514 111.723 92.56 111.723 91.382 110.66 178.618 110.66 177.514 111.723"/><polygon class="cls-5" points="161.428 102.292 108.572 102.292 107.886 103.471 162.114 103.471 161.428 102.292"/><polygon class="cls-4" points="101.402 106.64 91.5 107.14 100.223 99.345 106.118 99.345 101.402 106.64"/><path class="cls-4" d="M97.86538,60.001a42.81588,42.81588,0,0,0-3.183,39.13873l-2.9118,2.40487a46.05172,46.05172,0,0,1,6.09478-47.28473Z" transform="translate(0 0.5)"/><path class="cls-4" d="M182.15508,82.93018a46.01493,46.01493,0,0,1-3.84316,18.44938l-2.41669-2.228a42.77155,42.77155,0,0,0-2.58174-38.172V55.80421A45.86278,45.86278,0,0,1,182.15508,82.93018Z" transform="translate(0 0.5)"/><path class="cls-4" d="M154.07422,39.90117h-8.818a42.6772,42.6772,0,0,0-19.923,0H115.9258a46.15185,46.15185,0,0,1,38.14845,0Z" transform="translate(0 0.5)"/><path class="cls-6" d="M267.29352,167.80932c-11.23465,2.346-66.1939,4.12607-132.29354,4.12607S13.94113,170.15527,2.70647,167.80932Z" transform="translate(0 0.5)"/><path d="M264.10837,135.31787H5.89172c12.90178-1.07628,30.62475-2.008,51.61849-2.66661,22.69128-.70682,49.1852-1.12447,77.4899-1.12447,27.77279,0,53.80269.40159,76.211,1.09233C232.75932,133.27775,250.94629,134.20946,264.10837,135.31787Z" transform="translate(0 0.5)"/><path d="M270,144.06874v16.84619h-5.89438v-15.3254h-7.07327v15.3254H251.138V144.51672a4.81983,4.81983,0,0,1,4.81812-4.82156h9.67025A4.372,4.372,0,0,1,270,144.06553Z" transform="translate(0 0.5)"/><path d="M99.06285,144.06874v16.84619H93.16846v-15.3254H86.0952v15.3254H80.20082V144.51672a4.81983,4.81983,0,0,1,4.81812-4.82156h9.67025a4.372,4.372,0,0,1,4.37366,4.37034Z" transform="translate(0 0.5)"/><path d="M122.64039,144.06874v16.84619H116.746v-15.3254h-7.07326v15.3254h-5.89437V144.51672a4.81982,4.81982,0,0,1,4.81811-4.82156h9.67026a4.372,4.372,0,0,1,4.37365,4.37034Z" transform="translate(0 0.5)"/><path d="M242.0488,139.69516H230.02432a4.81983,4.81983,0,0,0-4.82164,4.818V156.058a4.86517,4.86517,0,0,0,4.857,4.857h11.57658a4.78967,4.78967,0,0,0,4.78624-4.78622v-12.06a4.372,4.372,0,0,0-4.37038-4.37362Zm-.34185,16.50427H229.91818V144.41066H241.707Z" transform="translate(0 0.5)"/><path d="M144.202,139.69516H132.17754a4.81983,4.81983,0,0,0-4.82164,4.818V156.058a4.86517,4.86517,0,0,0,4.857,4.857h11.57658a4.78967,4.78967,0,0,0,4.78624-4.78622v-12.06a4.372,4.372,0,0,0-4.37037-4.37362Zm-.34185,16.50427H132.0714V144.41066h11.78877Z" transform="translate(0 0.5)"/><path d="M220.48717,139.69516v21.21978h-5.84726a.05073.05073,0,0,1-.04712-.04719V139.69516Z" transform="translate(0 0.5)"/><path d="M74.30643,140.69516v21.21978H68.45918a.05073.05073,0,0,1-.04712-.04719V140.69516Z" transform="translate(0 0.5)"/><path d="M205.16177,146.76841v14.14652h-5.84724a.05074.05074,0,0,1-.04713-.0472V146.76841Z" transform="translate(0 0.5)"/><path d="M212.235,138.51628v5.89439H192.19412v-5.84726a.0507.0507,0,0,1,.04714-.04713Z" transform="translate(0 0.5)"/><path class="cls-7" d="M174.511,139.51628h-1.09634C173.68575,139.51628,174.52277,139.49267,174.511,139.51628Z" transform="translate(0 0.5)"/><path d="M175.68985,139.69516l-8.25214,18.5673-.389.87236a5.09391,5.09391,0,0,1-6.17731.93129,3.38133,3.38133,0,0,1-1.16708-1.29674l-9.94973-19.07421h6.03585l6.93179,15.32539a1.77519,1.77519,0,0,0,.27112.672l7.78062-15.99738Z" transform="translate(0 0.5)"/><path d="M185.17979,156.19943H187.679l-3.63089-9.3485-7.02614,14.064h-5.81184l9.45454-21.21977h4.2204l9.56069,21.21978h-15.066l1.9923-4.7155C182.37405,156.15223,185.14445,156.19943,185.17979,156.19943Z" transform="translate(0 0.5)"/><path class="cls-8" d="M56.62328,148.81764a8.50928,8.50928,0,0,1,1.13175,3.66629H56.62328Z" transform="translate(0 0.5)"/><rect class="cls-6" x="24.7936" y="131.94302" width="7.07326" height="31.82968"/><polygon class="cls-6" points="7.09 139.025 7.104 144.919 21.25 144.886 21.267 151.959 7.12 151.992 7.131 156.708 21.278 156.675 21.294 163.748 0.074 163.797 0 131.968 21.22 131.918 21.236 138.991 7.09 139.025"/><path class="cls-6" d="M61.327,151.82577c.0118.14147.0118.29472.0118.43617v1.86264a9.14167,9.14167,0,0,1-9.13521,9.14811H37.76125v-7.07326H54.26553v-3.13587a1.57976,1.57976,0,0,0-1.57973-1.57965H46.90935a9.13547,9.13547,0,0,1-9.1481-9.12281q0-.01266,0-.02529v-1.86264a9.01807,9.01807,0,0,1,9.00594-9.03017q.01212,0,.02423,0H60.15991v7.07326H46.41424a1.57976,1.57976,0,0,0-1.57973,1.57967v3.13585h7.47411a8.96076,8.96076,0,0,1,5.11629,1.59146l.0118.01179a7.095,7.095,0,0,1,3.90208,6.64888A3.1947,3.1947,0,0,1,61.327,151.82577Z" transform="translate(0 0.5)"/></svg>