<svg id="Calque_1" data-name="Calque 1" xmlns="http://www.w3.org/2000/svg" viewBox="0 0 262.14286 171.43536"><defs><style>.cls-1,.cls-2,.cls-4{fill:none;}.cls-1,.cls-3,.cls-4{stroke:#000;}.cls-1,.cls-2,.cls-3,.cls-4{stroke-miterlimit:10;}.cls-2{stroke:#047a18;}.cls-4{stroke-width:2px;}.cls-5{isolation:isolate;opacity:0.9;}</style></defs><path class="cls-1" d="M214.95542,86.92663a83.84743,83.84743,0,0,0-11.24466-27.581L218.7974,42.32821,196.357,19.70813l-16.72627,15.08a77.9933,77.9933,0,0,0-26.674-11.18045L151.721,1h-31.7274L118.72113,23.978A78.434,78.434,0,0,0,92.79355,35.44221l-17.436-15.73408L52.92941,42.32821,68.995,60.45634A83.68024,83.68024,0,0,0,58.79031,85.37172L32.93614,86.82789V118.839l24.98549,1.39452,0,0c1.81086,10.10678,4.62505,16.33868,9.62949,24.79181v.00005l-.75859,1.777L52.2931,164.06676c24.53272-.543,53.17664-.86377,83.77833-.86377,30.02674,0,58.16876.30854,82.3957.8392l-13.64295-15.38865A83.27978,83.27978,0,0,0,215.21233,121.628l23.99438-1.33279V88.284Z" transform="translate(-5 -0.50003)"/><rect class="cls-2" x="127.1047" y="106.69731" width="10.09712" height="1.45479"/><rect class="cls-2" x="127.1047" y="100.87816" width="10.09712" height="5.81915"/><polygon class="cls-2" points="129.99 103.788 137.202 103.788 137.202 103.788 129.99 103.788"/><polygon class="cls-2" points="127.105 103.788 128.547 103.788 128.547 103.788 127.105 103.788"/><path class="cls-2" d="M149.21208,86.83035a12.29458,12.29458,0,0,1-4.71673,7.71032,5.80444,5.80444,0,0,0-2.29351,4.62621v2.21129h-4.32735V97.01381a2.90968,2.90968,0,0,0,0-5.81914h0V86.83035h2.8849a2.885,2.885,0,1,1,5.76979,0Z" transform="translate(-5 -0.50003)"/><path class="cls-2" d="M140.75937,94.10424a2.90587,2.90587,0,0,1-2.88488,2.90957v4.36436H132.1047V99.18143a5.98446,5.98446,0,0,0-2.39443-4.71349,12.29655,12.29655,0,0,1-4.61584-7.63765h2.68293a2.885,2.885,0,1,0,5.76979.00827v-.00827h4.32734v4.36437A2.90582,2.90582,0,0,1,140.75937,94.10424Z" transform="translate(-5 -0.50003)"/><path class="cls-2" d="M134.9896,79.55636a2.90587,2.90587,0,0,0,2.88489,2.90957v4.36442h-4.3273a2.885,2.885,0,1,1-5.7698.00826v-.00826h-2.68294a12.15362,12.15362,0,0,1-.202-2.18218,12.3125,12.3125,0,0,1,12.2586-12.36569h.00219c.23074,0,.476.01457.72123.029v4.33534A2.9058,2.9058,0,0,0,134.9896,79.55636Z" transform="translate(-5 -0.50003)"/><path class="cls-2" d="M137.87449,72.28243v.029c-.24519-.01446-.49047-.029-.72123-.029Z" transform="translate(-5 -0.50003)"/><path class="cls-2" d="M155.18383,78.63984v.20369a11.8734,11.8734,0,0,1-.202,2.16763H152.299a2.885,2.885,0,1,0-5.76979-.00827v.00827h-2.88489V76.6468a2.90974,2.90974,0,0,1,0-5.81915V66.49232c.23074.01457.476.02912.72123.05825A12.35267,12.35267,0,0,1,155.054,77.02507,15.51851,15.51851,0,0,1,155.18383,78.63984Z" transform="translate(-5 -0.50003)"/><line class="cls-2" x1="116.64848" y1="74.92512" x2="112.68025" y2="70.32761"/><line class="cls-2" x1="120.69061" y1="71.29872" x2="119.89247" y2="67.41804"/><line class="cls-2" x1="114.1227" y1="79.05633" x2="111.2378" y2="79.05633"/><line class="cls-2" x1="145.49438" y1="94.82586" x2="149.46262" y2="99.42337"/><line class="cls-2" x1="141.45224" y1="98.45226" x2="142.2504" y2="102.33294"/><line class="cls-2" x1="148.02017" y1="90.69464" x2="150.90507" y2="90.69464"/><polygon class="cls-2" points="131.432 105.243 132.874 105.243 132.874 105.243 131.432 105.243"/><rect class="cls-2" x="134.31692" y="100.87816" width="1.44245" height="2.90957"/><polygon class="cls-3" points="169.515 129.974 183.94 129.974 170.958 119.79 163.746 119.79 169.515 129.974"/><path class="cls-3" d="M178.00339,140.65745A55.92567,55.92567,0,0,1,98.56427,145.12a56.50091,56.50091,0,0,1-4.42469-4.46255H100.371a51.96792,51.96792,0,0,0,72.12229,0Z" transform="translate(-5 -0.50003)"/><rect class="cls-4" x="89.96173" y="52.87015" width="83.66185" height="64.01066"/><polygon class="cls-4" points="184.441 130.702 77.701 130.702 89.241 120.518 174.344 120.518 184.441 130.702"/><polygon class="cls-4" points="183.091 136.52 79.143 136.52 77.701 135.208 184.441 135.208 183.091 136.52"/><polygon class="cls-4" points="163.408 124.882 98.735 124.882 97.895 126.337 164.247 126.337 163.408 124.882"/><polygon class="cls-3" points="89.962 130.248 77.846 130.865 88.519 121.245 95.732 121.245 89.962 130.248"/><path class="cls-3" d="M90.63439,73.80993a53.23048,53.23048,0,0,0-3.89464,48.299l-3.56281,2.96773a57.22478,57.22478,0,0,1,7.45743-58.35151Z" transform="translate(-5 -0.50003)"/><path class="cls-3" d="M193.76926,102.10557a57.20042,57.20042,0,0,1-4.7024,22.76737l-2.957-2.74945a53.18047,53.18047,0,0,0-3.159-47.106V68.63089A56.9228,56.9228,0,0,1,193.76926,102.10557Z" transform="translate(-5 -0.50003)"/><path class="cls-3" d="M159.41019,49.00581H148.6207a51.788,51.788,0,0,0-24.37731,0H112.7327a56.03424,56.03424,0,0,1,46.67753,0Z" transform="translate(-5 -0.50003)"/><path d="M267.14286,166.5547H5c13.098-1.41264,31.0904-2.63553,52.40335-3.5,23.03631-.92771,49.93307-1.47589,78.66815-1.47589,28.19507,0,54.62076.5271,77.36982,1.43371C235.31714,163.877,253.78064,165.09988,267.14286,166.5547Z" transform="translate(-5 -0.50003)"/><path class="cls-5" d="M184.41615,171.93539h-1.34146C183.40639,171.93539,184.43054,171.90626,184.41615,171.93539Z" transform="translate(-5 -0.50003)"/></svg>